# xmcd
#
# Track frame offsets: 
#        150
#        16580
#        32542
#        48962
#        62130
#        72740
#        80097
#        93072
#        97297
#        103887
#        114205
#        119012
#        137587
#        145575
#        150482
#        162195
#        174677
#        187977
#        216815
#        231032
#        236112
#        243110
#
# Disc length: 3519 seconds
#
# Revision: 6
# Processed by: cddbd v1.5.2PL0 Copyright (c) Steve Scherf et al.
# Submitted via: ExactAudioCopy v1.0b3
#
DISCID=270dbd16
DTITLE=Various Artist - Alan Lomax Popular Songbook
DYEAR=2003
DGENRE=Other
TTITLE0=Boy Blue - Joe Lee's Rock
TTITLE1=Woody Guthrie - Do Re Mi
TTITLE2=James Shorty, Viola James - Jesus On The Mainline
TTITLE3=Leadbelly - Midnight Special
TTITLE4=Memphis Slim, Sonny Boy Williamson, Big Bill Broonzy - Stagole
TTITLE4=e
TTITLE5=Vera Ward Hall - Trouble So Hard
TTITLE6=Felix Dukes, Mississippi Fred McDowell, Como - Motherless Chil
TTITLE6=dren
TTITLE7=Bessie Jones - Sometimes
TTITLE8=James 'Iron Head' Baker and Group - Black Betty
TTITLE9=Leadbelly - Take A Whiff On Me
TTITLE10=Sidney Lee Carter - Didn't Leave Nobody But The Baby
TTITLE11=Woody Guthrie - Goin' Down The Road Feeling Bad
TTITLE12=Kelly Pace and Group - Rock Island Line
TTITLE13=John Davies and The Georgia Sea Island Singers - Join The Ban
TTITLE13=d
TTITLE14=Cleveland Simmons Group - Sloop John B. (Hoist Up The John B.
TTITLE14='s Sails)
TTITLE15=Macbeth The Great - Man Smart, Woman Smarter
TTITLE16=Duke Of Iron - Ugly Woman (If You Wanna Be Happy)
TTITLE17=Leadbelly - The Gallows Pole
TTITLE18=C.B. and Axe Gang - Rosie (Inside Looking Out)
TTITLE19=José Maria Rodriguez - Alborada De Vigo
TTITLE20=Georgia Turner - The House Of The Rising Sun (Rising Sun Blue
TTITLE20=s)
TTITLE21=Leadbelly - Irene Goodnight (Goodnight Irene)
EXTD=YEAR: 2003
EXTT0=
EXTT1=
EXTT2=
EXTT3=
EXTT4=
EXTT5=
EXTT6=
EXTT7=
EXTT8=
EXTT9=
EXTT10=
EXTT11=
EXTT12=
EXTT13=
EXTT14=
EXTT15=
EXTT16=
EXTT17=
EXTT18=
EXTT19=
EXTT20=
EXTT21=
PLAYORDER=
